# xmcd
#
# Track frame offsets: 
#        150
#        14880
#        25975
#        41022
#        57150
#        73170
#        88747
#        103380
#        114437
#        130022
#
# Disc length: 1926 seconds
#
# Revision: 3
# Processed by: cddbd v1.5PL3 Copyright (c) Steve Scherf et al.
# Submitted via: ExactAudioCopy v0.95a4
#
DISCID=8f07840a
DTITLE=George Jones - And Along Came Jones
DYEAR=1991
DGENRE=Country
TTITLE0=Where The Tall Grass Grows
TTITLE1=Honky Tonk Myself To Death
TTITLE2=Angels Don't Fly
TTITLE3=You Couldn't Get The Picture
TTITLE4=Come Home To Me
TTITLE5=Heckel And Jeckel
TTITLE6=I Don't Go Back Anymore
TTITLE7=You Done Me Wrong
TTITLE8=King Of The Mountain
TTITLE9=She Loved A Lot In Her Time
EXTD=
EXTT0=
EXTT1=
EXTT2=
EXTT3=
EXTT4=
EXTT5=
EXTT6=
EXTT7=
EXTT8=
EXTT9=
PLAYORDER=
